<svg width="914" height="400" fill="none" xmlns="http://www.w3.org/2000/svg"><style>#CL0 {fill: #333;}#CL1 {fill: #B1B1B1;}#CL2 {fill: #CCC;}#CL3 {fill: #E5E5E5;}#CL4 {fill: #FFF;}@media (prefers-color-scheme: dark) {#CL0 {fill: #CCC;}#CL1 {fill: #4E4E4E;}#CL2 {fill: #323232;}#CL3 {fill: #191919;}#CL4 {fill: #111;}}</style><g clip-path="url(#rds__a)"><path d="M456 200a30.011 30.011 0 0 0-4.999-16.579 29.998 29.998 0 0 0-52.634 28.251 29.652 29.652 0 0 0 6.422 9.539 29.998 29.998 0 0 0 32.691 6.501 30.006 30.006 0 0 0 13.463-11.047A30.006 30.006 0 0 0 456 200Zm-13.055-10.476c.262.121.482.317.633.562a1.544 1.544 0 0 1 0 1.641 1.623 1.623 0 0 1-.633.586l-16.265 8.062a1.711 1.711 0 0 1-1.36 0l-16.265-8.062a1.623 1.623 0 0 1-.633-.586 1.557 1.557 0 0 1 0-1.641c.151-.245.371-.441.633-.562l16.265-8.063a1.531 1.531 0 0 1 1.383 0l16.242 8.063Zm-1.406 6.21a1.52 1.52 0 0 1 1.195-.07 1.405 1.405 0 0 1 .891.774 1.445 1.445 0 0 1 .094 1.195 1.505 1.505 0 0 1-.797.891l-16.266 8.062a1.485 1.485 0 0 1-1.359 0l-16.266-8.062a1.488 1.488 0 0 1-.797-.891 1.57 1.57 0 0 1 .094-1.195 1.414 1.414 0 0 1 .891-.774 1.516 1.516 0 0 1 1.195.07L426 203.445l15.563-7.711h-.024Zm1.219 11.766a1.497 1.497 0 0 1 .891.774c.186.37.22.8.093 1.195a1.487 1.487 0 0 1-.797.89l-16.265 8.063a1.411 1.411 0 0 1-.68.164 1.531 1.531 0 0 1-.68-.164l-16.265-8.063a1.5 1.5 0 0 1-.797-.89 1.573 1.573 0 0 1 2.18-1.899L426 215.281l15.563-7.711a1.514 1.514 0 0 1 1.195-.07Zm0-5.93a1.505 1.505 0 0 1 .891.797 1.536 1.536 0 0 1 .093 1.172 1.57 1.57 0 0 1-.797.938l-16.265 8.039a1.505 1.505 0 0 1-.68.164c-.236 0-.469-.057-.68-.164l-16.265-8.063a1.581 1.581 0 0 1-.868-1.533 1.51 1.51 0 0 1 .165-.576 1.485 1.485 0 0 1 .89-.797 1.463 1.463 0 0 1 1.196.094L426 209.375l15.563-7.711a1.459 1.459 0 0 1 1.195-.094Z" id="CL0"/><path d="M443.649 208.274a1.572 1.572 0 0 0-2.086-.704L426 215.281l-15.562-7.711a1.579 1.579 0 0 0-2.086.704c-.187.37-.221.8-.094 1.195a1.49 1.49 0 0 0 .797.89l16.266 8.063c.21.106.443.163.679.164.237.003.471-.053.68-.164l16.266-8.063a1.496 1.496 0 0 0 .796-.89 1.584 1.584 0 0 0-.093-1.195Z" id="CL1"/><path d="M443.649 202.367a1.499 1.499 0 0 0-.891-.796 1.461 1.461 0 0 0-1.195.093L426 209.375l-15.562-7.711a1.463 1.463 0 0 0-1.196-.093 1.487 1.487 0 0 0-.89.796 1.52 1.52 0 0 0-.094 1.172 1.586 1.586 0 0 0 .797.938l16.266 8.039a1.485 1.485 0 0 0 1.359 0l16.266-8.039a1.589 1.589 0 0 0 .868-1.533 1.556 1.556 0 0 0-.165-.577Z" id="CL2"/><path d="M442.758 195.664a1.516 1.516 0 0 0-1.195.071L426 203.446l-15.562-7.711a1.503 1.503 0 0 0-1.195-.071 1.398 1.398 0 0 0-.891.774c-.188.37-.222.8-.094 1.195a1.5 1.5 0 0 0 .797.891l16.266 8.062a1.485 1.485 0 0 0 1.359 0l16.266-8.062a1.5 1.5 0 0 0 .797-.891 1.461 1.461 0 0 0-.094-1.195 1.414 1.414 0 0 0-.891-.774Z" id="CL3"/><path d="M443.391 189.789a1.466 1.466 0 0 0-.633-.562l-16.242-8.063a1.531 1.531 0 0 0-1.383 0l-16.266 8.063a1.47 1.47 0 0 0-.632.562 1.544 1.544 0 0 0 0 1.641c.154.249.372.451.632.586l16.266 8.062a1.711 1.711 0 0 0 1.359 0l16.266-8.062c.26-.135.479-.337.633-.586a1.556 1.556 0 0 0 0-1.641Z" id="CL4"/></g><path d="M479.916 212c-.24 0-.396-.12-.468-.36l-3.06-10.332c-.048-.096-.108-.144-.18-.144H474.3c-.12 0-.18.06-.18.18v10.224c0 .12-.048.228-.144.324a.39.39 0 0 1-.288.108h-3.312a.527.527 0 0 1-.324-.108.527.527 0 0 1-.108-.324v-24.336a.39.39 0 0 1 .108-.288.448.448 0 0 1 .324-.144h6.768c1.272 0 2.388.312 3.348.936.984.6 1.74 1.464 2.268 2.592.552 1.104.828 2.376.828 3.816 0 1.488-.288 2.772-.864 3.852-.576 1.08-1.38 1.896-2.412 2.448-.096.024-.132.096-.108.216l3.528 10.836a.4.4 0 0 1 .036.18c0 .216-.132.324-.396.324h-3.456Zm-5.616-21.6c-.12 0-.18.06-.18.18v7.164c0 .12.06.18.18.18h2.196c.864 0 1.56-.336 2.088-1.008.552-.672.828-1.584.828-2.736 0-1.152-.276-2.064-.828-2.736-.528-.696-1.224-1.044-2.088-1.044H474.3Zm12.67 21.6a.527.527 0 0 1-.324-.108.527.527 0 0 1-.108-.324v-24.336a.39.39 0 0 1 .108-.288.448.448 0 0 1 .324-.144h6.156c2.064 0 3.708.624 4.932 1.872 1.248 1.248 1.872 2.916 1.872 5.004v11.448c0 2.088-.624 3.756-1.872 5.004-1.224 1.248-2.868 1.872-4.932 1.872h-6.156Zm3.744-3.78c0 .12.06.18.18.18l2.16-.036c.792 0 1.428-.312 1.908-.936.504-.648.768-1.5.792-2.556v-10.944c0-1.08-.252-1.932-.756-2.556-.48-.648-1.14-.972-1.98-.972h-2.124c-.12 0-.18.06-.18.18v17.64Zm18.744 4.068c-1.992 0-3.6-.6-4.824-1.8-1.224-1.2-1.836-2.772-1.836-4.716v-.936a.39.39 0 0 1 .108-.288.448.448 0 0 1 .324-.144h3.276c.12 0 .216.048.288.144a.342.342 0 0 1 .144.288v.72c0 .936.228 1.692.684 2.268.48.576 1.092.864 1.836.864s1.356-.264 1.836-.792c.48-.552.72-1.272.72-2.16 0-.624-.132-1.164-.396-1.62-.264-.456-.636-.888-1.116-1.296-.48-.408-1.248-.996-2.304-1.764-1.2-.864-2.172-1.632-2.916-2.304a9.29 9.29 0 0 1-1.836-2.412c-.48-.96-.72-2.064-.72-3.312 0-1.992.6-3.576 1.8-4.752 1.2-1.176 2.784-1.764 4.752-1.764 1.992 0 3.6.624 4.824 1.872 1.224 1.224 1.836 2.856 1.836 4.896v.864c0 .12-.048.228-.144.324a.39.39 0 0 1-.288.108h-3.24a.527.527 0 0 1-.324-.108.527.527 0 0 1-.108-.324v-.936c0-.936-.24-1.68-.72-2.232-.456-.576-1.068-.864-1.836-.864-.72 0-1.308.264-1.764.792-.456.504-.684 1.212-.684 2.124 0 .864.24 1.596.72 2.196.504.6 1.476 1.428 2.916 2.484 1.464 1.08 2.568 1.968 3.312 2.664.744.672 1.32 1.416 1.728 2.232.408.816.612 1.788.612 2.916 0 2.04-.612 3.684-1.836 4.932-1.224 1.224-2.832 1.836-4.824 1.836Z" id="CL0"/><defs><clipPath id="rds__a"><path id="CL4" transform="translate(396 170)" d="M0 0h60v60H0z"/></clipPath></defs></svg>